<mxfile host="app.diagrams.net" agent="Mozilla/5.0 (Windows NT 10.0; Win64; x64) AppleWebKit/537.36 (KHTML, like Gecko) Chrome/127.0.0.0 Safari/537.36" version="24.7.6">
  <diagram name="Page-1" id="r9Md3Hp_UdAw_d0ZA2sm">
    <mxGraphModel dx="3425" dy="1813" grid="1" gridSize="10" guides="1" tooltips="1" connect="1" arrows="1" fold="1" page="0" pageScale="1" pageWidth="850" pageHeight="1100" math="0" shadow="0">
      <root>
        <mxCell id="0" />
        <mxCell id="1" parent="0" />
        <mxCell id="gCfjpimIp_-97xmTpdDT-47" value="" style="rounded=1;whiteSpace=wrap;html=1;fillColor=#f5f5f5;fontColor=#333333;strokeColor=#666666;fontSize=30;" vertex="1" parent="1">
          <mxGeometry x="-300" y="450" width="270" height="400" as="geometry" />
        </mxCell>
        <mxCell id="gCfjpimIp_-97xmTpdDT-45" value="" style="rounded=1;whiteSpace=wrap;html=1;fillColor=none;strokeWidth=2;dashed=1;fontSize=30;" vertex="1" parent="1">
          <mxGeometry x="-340" y="-110" width="360" height="1230" as="geometry" />
        </mxCell>
        <mxCell id="gCfjpimIp_-97xmTpdDT-30" value="" style="rounded=1;whiteSpace=wrap;html=1;fillColor=none;dashed=1;strokeWidth=2;fontSize=30;" vertex="1" parent="1">
          <mxGeometry x="230" y="-110" width="1520" height="1230" as="geometry" />
        </mxCell>
        <mxCell id="gCfjpimIp_-97xmTpdDT-14" value="" style="rounded=1;whiteSpace=wrap;html=1;fillColor=#FFF8DB;strokeColor=#d6b656;fontSize=30;" vertex="1" parent="1">
          <mxGeometry x="730" y="-30" width="830" height="460" as="geometry" />
        </mxCell>
        <mxCell id="gCfjpimIp_-97xmTpdDT-8" value="" style="edgeStyle=orthogonalEdgeStyle;rounded=0;orthogonalLoop=1;jettySize=auto;html=1;entryX=0;entryY=0.5;entryDx=0;entryDy=0;fontSize=30;" edge="1" parent="1" source="gCfjpimIp_-97xmTpdDT-1" target="gCfjpimIp_-97xmTpdDT-2">
          <mxGeometry relative="1" as="geometry">
            <mxPoint x="745" y="85" as="targetPoint" />
          </mxGeometry>
        </mxCell>
        <mxCell id="gCfjpimIp_-97xmTpdDT-1" value="&lt;font style=&quot;font-size: 30px;&quot;&gt;&lt;b style=&quot;font-size: 30px;&quot;&gt;Phishing&lt;/b&gt;&lt;/font&gt;&lt;div style=&quot;font-size: 30px;&quot;&gt;&lt;font style=&quot;font-size: 30px;&quot;&gt;&lt;b style=&quot;font-size: 30px;&quot;&gt;Dataset&lt;/b&gt;&lt;/font&gt;&lt;/div&gt;" style="rounded=1;whiteSpace=wrap;html=1;fillColor=default;fontSize=30;" vertex="1" parent="1">
          <mxGeometry x="470" y="40" width="170" height="90" as="geometry" />
        </mxCell>
        <mxCell id="gCfjpimIp_-97xmTpdDT-9" value="" style="edgeStyle=orthogonalEdgeStyle;rounded=0;orthogonalLoop=1;jettySize=auto;html=1;fontSize=30;" edge="1" parent="1" source="gCfjpimIp_-97xmTpdDT-2" target="gCfjpimIp_-97xmTpdDT-3">
          <mxGeometry relative="1" as="geometry" />
        </mxCell>
        <mxCell id="gCfjpimIp_-97xmTpdDT-2" value="&lt;span style=&quot;font-size: 30px;&quot;&gt;&lt;b style=&quot;font-size: 30px;&quot;&gt;Preprocessing&lt;/b&gt;&lt;/span&gt;" style="rounded=1;whiteSpace=wrap;html=1;fontSize=30;" vertex="1" parent="1">
          <mxGeometry x="745" y="40" width="240" height="90" as="geometry" />
        </mxCell>
        <mxCell id="gCfjpimIp_-97xmTpdDT-10" value="" style="edgeStyle=orthogonalEdgeStyle;rounded=0;orthogonalLoop=1;jettySize=auto;html=1;fontSize=30;" edge="1" parent="1" source="gCfjpimIp_-97xmTpdDT-3" target="gCfjpimIp_-97xmTpdDT-4">
          <mxGeometry relative="1" as="geometry" />
        </mxCell>
        <mxCell id="gCfjpimIp_-97xmTpdDT-3" value="&lt;span style=&quot;font-size: 30px;&quot;&gt;&lt;b style=&quot;font-size: 30px;&quot;&gt;Feature&amp;nbsp;&lt;/b&gt;&lt;/span&gt;&lt;div style=&quot;font-size: 30px;&quot;&gt;&lt;span style=&quot;font-size: 30px;&quot;&gt;&lt;b style=&quot;font-size: 30px;&quot;&gt;Selection&lt;/b&gt;&lt;/span&gt;&lt;/div&gt;" style="rounded=1;whiteSpace=wrap;html=1;fontSize=30;" vertex="1" parent="1">
          <mxGeometry x="1060" y="40" width="170" height="90" as="geometry" />
        </mxCell>
        <mxCell id="gCfjpimIp_-97xmTpdDT-11" value="" style="edgeStyle=orthogonalEdgeStyle;rounded=0;orthogonalLoop=1;jettySize=auto;html=1;fontSize=30;" edge="1" parent="1" source="gCfjpimIp_-97xmTpdDT-4" target="gCfjpimIp_-97xmTpdDT-5">
          <mxGeometry relative="1" as="geometry" />
        </mxCell>
        <mxCell id="gCfjpimIp_-97xmTpdDT-4" value="&lt;span style=&quot;font-size: 30px;&quot;&gt;&lt;b style=&quot;font-size: 30px;&quot;&gt;ML Models&lt;/b&gt;&lt;/span&gt;&lt;div style=&quot;font-size: 30px;&quot;&gt;&lt;span style=&quot;font-size: 30px;&quot;&gt;&lt;b style=&quot;font-size: 30px;&quot;&gt;Pipelines&lt;/b&gt;&lt;/span&gt;&lt;/div&gt;" style="rounded=1;whiteSpace=wrap;html=1;fontSize=30;" vertex="1" parent="1">
          <mxGeometry x="1329" y="40" width="190" height="90" as="geometry" />
        </mxCell>
        <mxCell id="gCfjpimIp_-97xmTpdDT-12" value="" style="edgeStyle=orthogonalEdgeStyle;rounded=0;orthogonalLoop=1;jettySize=auto;html=1;fontSize=30;" edge="1" parent="1" source="gCfjpimIp_-97xmTpdDT-5" target="gCfjpimIp_-97xmTpdDT-6">
          <mxGeometry relative="1" as="geometry" />
        </mxCell>
        <mxCell id="gCfjpimIp_-97xmTpdDT-5" value="&lt;span style=&quot;font-size: 30px;&quot;&gt;&lt;b style=&quot;font-size: 30px;&quot;&gt;Training Phase&lt;/b&gt;&lt;/span&gt;" style="rounded=1;whiteSpace=wrap;html=1;fontSize=30;" vertex="1" parent="1">
          <mxGeometry x="1340" y="230" width="170" height="90" as="geometry" />
        </mxCell>
        <mxCell id="gCfjpimIp_-97xmTpdDT-6" value="&lt;span style=&quot;font-size: 30px;&quot;&gt;&lt;b style=&quot;font-size: 30px;&quot;&gt;Select Best&lt;/b&gt;&lt;/span&gt;&lt;div style=&quot;font-size: 30px;&quot;&gt;&lt;span style=&quot;font-size: 30px;&quot;&gt;&lt;b style=&quot;font-size: 30px;&quot;&gt;ML Model&lt;/b&gt;&lt;/span&gt;&lt;/div&gt;" style="rounded=1;whiteSpace=wrap;html=1;fontSize=30;" vertex="1" parent="1">
          <mxGeometry x="774" y="230" width="180" height="90" as="geometry" />
        </mxCell>
        <mxCell id="gCfjpimIp_-97xmTpdDT-15" value="&lt;font style=&quot;font-size: 30px;&quot;&gt;&lt;b style=&quot;font-size: 30px;&quot;&gt;Offline Training&lt;/b&gt;&lt;/font&gt;" style="text;html=1;align=center;verticalAlign=middle;whiteSpace=wrap;rounded=0;fontSize=30;" vertex="1" parent="1">
          <mxGeometry x="985" y="380" width="320" height="30" as="geometry" />
        </mxCell>
        <mxCell id="gCfjpimIp_-97xmTpdDT-29" value="" style="ellipse;shape=cloud;whiteSpace=wrap;html=1;fillColor=#c2fbff;strokeColor=#6c8ebf;fontSize=30;" vertex="1" parent="1">
          <mxGeometry x="240" y="520" width="1180" height="370" as="geometry" />
        </mxCell>
        <mxCell id="gCfjpimIp_-97xmTpdDT-25" value="" style="edgeStyle=orthogonalEdgeStyle;rounded=0;orthogonalLoop=1;jettySize=auto;html=1;entryX=0;entryY=0.5;entryDx=0;entryDy=0;fontSize=30;" edge="1" parent="1" source="gCfjpimIp_-97xmTpdDT-19" target="gCfjpimIp_-97xmTpdDT-23">
          <mxGeometry relative="1" as="geometry">
            <mxPoint x="1055" y="715" as="targetPoint" />
          </mxGeometry>
        </mxCell>
        <mxCell id="gCfjpimIp_-97xmTpdDT-19" value="&lt;span style=&quot;font-size: 30px;&quot;&gt;&lt;b style=&quot;font-size: 30px;&quot;&gt;Best ML&lt;/b&gt;&lt;/span&gt;&lt;div style=&quot;font-size: 30px;&quot;&gt;&lt;b style=&quot;font-size: 30px; background-color: initial;&quot;&gt;Model&lt;/b&gt;&lt;/div&gt;" style="rounded=1;whiteSpace=wrap;html=1;fontSize=30;" vertex="1" parent="1">
          <mxGeometry x="780" y="670" width="170" height="90" as="geometry" />
        </mxCell>
        <mxCell id="gCfjpimIp_-97xmTpdDT-22" value="" style="edgeStyle=orthogonalEdgeStyle;rounded=0;orthogonalLoop=1;jettySize=auto;html=1;entryX=0;entryY=0.5;entryDx=0;entryDy=0;fontSize=30;" edge="1" parent="1" source="gCfjpimIp_-97xmTpdDT-20" target="gCfjpimIp_-97xmTpdDT-19">
          <mxGeometry relative="1" as="geometry">
            <mxPoint x="745.0000000000002" y="715" as="targetPoint" />
          </mxGeometry>
        </mxCell>
        <mxCell id="gCfjpimIp_-97xmTpdDT-20" value="&lt;span style=&quot;font-size: 30px;&quot;&gt;&lt;b style=&quot;font-size: 30px;&quot;&gt;URL Feature&lt;/b&gt;&lt;/span&gt;&lt;div style=&quot;font-size: 30px;&quot;&gt;&lt;span style=&quot;font-size: 30px;&quot;&gt;&lt;b style=&quot;font-size: 30px;&quot;&gt;Extraction&lt;/b&gt;&lt;/span&gt;&lt;/div&gt;" style="rounded=1;whiteSpace=wrap;html=1;fontSize=30;" vertex="1" parent="1">
          <mxGeometry x="440" y="670" width="200" height="90" as="geometry" />
        </mxCell>
        <mxCell id="gCfjpimIp_-97xmTpdDT-28" value="" style="edgeStyle=orthogonalEdgeStyle;rounded=0;orthogonalLoop=1;jettySize=auto;html=1;entryX=0;entryY=0.5;entryDx=0;entryDy=0;fontSize=30;" edge="1" parent="1" source="gCfjpimIp_-97xmTpdDT-23" target="gCfjpimIp_-97xmTpdDT-26">
          <mxGeometry relative="1" as="geometry">
            <mxPoint x="1355" y="715" as="targetPoint" />
          </mxGeometry>
        </mxCell>
        <mxCell id="gCfjpimIp_-97xmTpdDT-23" value="&lt;span style=&quot;font-size: 30px;&quot;&gt;&lt;b style=&quot;font-size: 30px;&quot;&gt;Model&lt;/b&gt;&lt;/span&gt;&lt;div style=&quot;font-size: 30px;&quot;&gt;&lt;span style=&quot;font-size: 30px;&quot;&gt;&lt;b style=&quot;font-size: 30px;&quot;&gt;Inference&lt;/b&gt;&lt;/span&gt;&lt;/div&gt;" style="rounded=1;whiteSpace=wrap;html=1;fontSize=30;" vertex="1" parent="1">
          <mxGeometry x="1080" y="670" width="170" height="90" as="geometry" />
        </mxCell>
        <mxCell id="gCfjpimIp_-97xmTpdDT-26" value="&lt;span style=&quot;font-size: 30px;&quot;&gt;&lt;b style=&quot;font-size: 30px;&quot;&gt;Prediction&lt;/b&gt;&lt;/span&gt;" style="rounded=1;whiteSpace=wrap;html=1;fontSize=30;" vertex="1" parent="1">
          <mxGeometry x="1390" y="670" width="170" height="90" as="geometry" />
        </mxCell>
        <mxCell id="gCfjpimIp_-97xmTpdDT-32" value="&lt;font style=&quot;font-size: 30px;&quot;&gt;&lt;b style=&quot;font-size: 30px;&quot;&gt;Cloud-based Deployment&lt;/b&gt;&lt;/font&gt;" style="text;html=1;align=center;verticalAlign=middle;whiteSpace=wrap;rounded=0;fontSize=30;" vertex="1" parent="1">
          <mxGeometry x="720" y="810" width="370" height="30" as="geometry" />
        </mxCell>
        <mxCell id="gCfjpimIp_-97xmTpdDT-35" value="&lt;font style=&quot;font-size: 40px;&quot;&gt;&lt;b style=&quot;font-size: 40px;&quot;&gt;Server Side&lt;/b&gt;&lt;/font&gt;" style="text;html=1;align=center;verticalAlign=middle;whiteSpace=wrap;rounded=0;fontSize=40;" vertex="1" parent="1">
          <mxGeometry x="850" y="1020" width="320" height="30" as="geometry" />
        </mxCell>
        <mxCell id="gCfjpimIp_-97xmTpdDT-39" value="" style="edgeStyle=orthogonalEdgeStyle;rounded=0;orthogonalLoop=1;jettySize=auto;html=1;fontSize=30;" edge="1" parent="1" source="gCfjpimIp_-97xmTpdDT-37">
          <mxGeometry relative="1" as="geometry">
            <mxPoint x="360" y="724" as="targetPoint" />
          </mxGeometry>
        </mxCell>
        <mxCell id="gCfjpimIp_-97xmTpdDT-37" value="&lt;font style=&quot;font-size: 30px;&quot;&gt;&lt;b style=&quot;font-size: 30px;&quot;&gt;http://www.url.com&lt;/b&gt;&lt;/font&gt;" style="rounded=1;whiteSpace=wrap;html=1;rotation=90;fontSize=30;" vertex="1" parent="1">
          <mxGeometry x="-30" y="696" width="310" height="60" as="geometry" />
        </mxCell>
        <mxCell id="gCfjpimIp_-97xmTpdDT-42" value="" style="edgeStyle=orthogonalEdgeStyle;rounded=0;orthogonalLoop=1;jettySize=auto;html=1;fontSize=30;" edge="1" parent="1" source="gCfjpimIp_-97xmTpdDT-40" target="gCfjpimIp_-97xmTpdDT-41">
          <mxGeometry relative="1" as="geometry" />
        </mxCell>
        <mxCell id="gCfjpimIp_-97xmTpdDT-40" value="&lt;span style=&quot;font-size: 30px;&quot;&gt;&lt;b style=&quot;font-size: 30px;&quot;&gt;URL Capture&lt;/b&gt;&lt;/span&gt;" style="rounded=1;whiteSpace=wrap;html=1;fillColor=default;fontSize=30;" vertex="1" parent="1">
          <mxGeometry x="-250" y="500" width="170" height="90" as="geometry" />
        </mxCell>
        <mxCell id="gCfjpimIp_-97xmTpdDT-44" value="" style="edgeStyle=orthogonalEdgeStyle;rounded=0;orthogonalLoop=1;jettySize=auto;html=1;entryX=0.5;entryY=1;entryDx=0;entryDy=0;fontSize=30;" edge="1" parent="1" source="gCfjpimIp_-97xmTpdDT-41" target="gCfjpimIp_-97xmTpdDT-37">
          <mxGeometry relative="1" as="geometry">
            <mxPoint x="25" y="726" as="targetPoint" />
          </mxGeometry>
        </mxCell>
        <mxCell id="gCfjpimIp_-97xmTpdDT-41" value="&lt;span style=&quot;font-size: 30px;&quot;&gt;&lt;b style=&quot;font-size: 30px;&quot;&gt;Client API&lt;/b&gt;&lt;/span&gt;&lt;div style=&quot;font-size: 30px;&quot;&gt;&lt;span style=&quot;font-size: 30px;&quot;&gt;&lt;b style=&quot;font-size: 30px;&quot;&gt;Call&lt;/b&gt;&lt;/span&gt;&lt;/div&gt;" style="rounded=1;whiteSpace=wrap;html=1;fillColor=default;fontSize=30;" vertex="1" parent="1">
          <mxGeometry x="-250" y="681" width="170" height="90" as="geometry" />
        </mxCell>
        <mxCell id="gCfjpimIp_-97xmTpdDT-48" value="&lt;font size=&quot;1&quot; style=&quot;&quot;&gt;&lt;b style=&quot;font-size: 40px;&quot;&gt;Client Side&lt;/b&gt;&lt;/font&gt;" style="text;html=1;align=center;verticalAlign=middle;whiteSpace=wrap;rounded=0;fontSize=30;" vertex="1" parent="1">
          <mxGeometry x="-325" y="1020" width="320" height="30" as="geometry" />
        </mxCell>
        <mxCell id="gCfjpimIp_-97xmTpdDT-49" value="" style="shape=curlyBracket;whiteSpace=wrap;html=1;rounded=1;labelPosition=left;verticalLabelPosition=middle;align=right;verticalAlign=middle;strokeWidth=2;fontSize=30;" vertex="1" parent="1">
          <mxGeometry x="-420" y="-90" width="20" height="540" as="geometry" />
        </mxCell>
        <mxCell id="gCfjpimIp_-97xmTpdDT-50" value="&lt;font style=&quot;font-size: 30px;&quot;&gt;&lt;b style=&quot;font-size: 30px;&quot;&gt;Pre-deployment&lt;/b&gt;&lt;/font&gt;&lt;div style=&quot;font-size: 30px;&quot;&gt;&lt;font style=&quot;font-size: 30px;&quot;&gt;&lt;b style=&quot;font-size: 30px;&quot;&gt;Stage&lt;/b&gt;&lt;/font&gt;&lt;/div&gt;" style="text;html=1;align=center;verticalAlign=middle;whiteSpace=wrap;rounded=0;fontSize=30;" vertex="1" parent="1">
          <mxGeometry x="-720" y="165" width="320" height="30" as="geometry" />
        </mxCell>
        <mxCell id="gCfjpimIp_-97xmTpdDT-51" value="" style="shape=curlyBracket;whiteSpace=wrap;html=1;rounded=1;labelPosition=left;verticalLabelPosition=middle;align=right;verticalAlign=middle;strokeWidth=2;fontSize=30;" vertex="1" parent="1">
          <mxGeometry x="-420" y="490" width="20" height="540" as="geometry" />
        </mxCell>
        <mxCell id="gCfjpimIp_-97xmTpdDT-52" value="&lt;font style=&quot;font-size: 30px;&quot;&gt;&lt;b style=&quot;font-size: 30px;&quot;&gt;Deployment&lt;/b&gt;&lt;/font&gt;&lt;div style=&quot;font-size: 30px;&quot;&gt;&lt;font style=&quot;font-size: 30px;&quot;&gt;&lt;b style=&quot;font-size: 30px;&quot;&gt;Stage&lt;/b&gt;&lt;/font&gt;&lt;/div&gt;" style="text;html=1;align=center;verticalAlign=middle;whiteSpace=wrap;rounded=0;fontSize=30;" vertex="1" parent="1">
          <mxGeometry x="-720" y="756" width="320" height="30" as="geometry" />
        </mxCell>
        <mxCell id="gCfjpimIp_-97xmTpdDT-18" value="" style="edgeStyle=orthogonalEdgeStyle;rounded=0;orthogonalLoop=1;jettySize=auto;html=1;entryX=0.5;entryY=0;entryDx=0;entryDy=0;fontSize=30;" edge="1" parent="1" source="gCfjpimIp_-97xmTpdDT-6" target="gCfjpimIp_-97xmTpdDT-19">
          <mxGeometry relative="1" as="geometry">
            <mxPoint x="865.0000000000002" y="415" as="targetPoint" />
          </mxGeometry>
        </mxCell>
        <mxCell id="gCfjpimIp_-97xmTpdDT-53" value="&lt;font style=&quot;font-size: 60px;&quot;&gt;Project Overview&lt;/font&gt;" style="text;html=1;align=center;verticalAlign=middle;whiteSpace=wrap;rounded=0;fontSize=50;fontStyle=1" vertex="1" parent="1">
          <mxGeometry x="160" y="-270" width="560" height="30" as="geometry" />
        </mxCell>
      </root>
    </mxGraphModel>
  </diagram>
</mxfile>
